<mxfile host="app.diagrams.net" agent="Mozilla/5.0 (Windows NT 10.0; Win64; x64) AppleWebKit/537.36 (KHTML, like Gecko) Chrome/133.0.0.0 Safari/537.36" version="26.0.16">
  <diagram name="Página-1" id="vBr23Gh20WZKGTqE2Cpy">
    <mxGraphModel dx="1674" dy="746" grid="1" gridSize="10" guides="1" tooltips="1" connect="1" arrows="1" fold="1" page="1" pageScale="1" pageWidth="1169" pageHeight="827" math="0" shadow="0">
      <root>
        <mxCell id="0" />
        <mxCell id="1" parent="0" />
        <mxCell id="rS9MF68eR8BM3vYg2wUR-3" value="" style="edgeStyle=orthogonalEdgeStyle;rounded=0;orthogonalLoop=1;jettySize=auto;html=1;entryX=0;entryY=0.5;entryDx=0;entryDy=0;entryPerimeter=0;" edge="1" parent="1" source="rS9MF68eR8BM3vYg2wUR-1" target="rS9MF68eR8BM3vYg2wUR-8">
          <mxGeometry relative="1" as="geometry">
            <mxPoint x="630" y="235" as="targetPoint" />
          </mxGeometry>
        </mxCell>
        <mxCell id="rS9MF68eR8BM3vYg2wUR-4" value="Cliente tiene BEPASS&amp;nbsp;&lt;div&gt;Activo&lt;/div&gt;" style="edgeLabel;html=1;align=center;verticalAlign=middle;resizable=0;points=[];" vertex="1" connectable="0" parent="rS9MF68eR8BM3vYg2wUR-3">
          <mxGeometry x="-0.1263" y="3" relative="1" as="geometry">
            <mxPoint x="-3" y="27" as="offset" />
          </mxGeometry>
        </mxCell>
        <mxCell id="rS9MF68eR8BM3vYg2wUR-1" value="Salesforce" style="rounded=0;whiteSpace=wrap;html=1;" vertex="1" parent="1">
          <mxGeometry x="260" y="100" width="120" height="60" as="geometry" />
        </mxCell>
        <mxCell id="rS9MF68eR8BM3vYg2wUR-6" value="CallCenter_Prod" style="points=[[0,0],[0.25,0],[0.5,0],[0.75,0],[1,0],[1,0.25],[1,0.5],[1,0.75],[1,1],[0.75,1],[0.5,1],[0.25,1],[0,1],[0,0.75],[0,0.5],[0,0.25]];outlineConnect=0;gradientColor=none;html=1;whiteSpace=wrap;fontSize=12;fontStyle=0;container=1;pointerEvents=0;collapsible=0;recursiveResize=0;shape=mxgraph.aws4.group;grIcon=mxgraph.aws4.group_region;strokeColor=#00A4A6;fillColor=none;verticalAlign=top;align=left;spacingLeft=30;fontColor=#147EBA;dashed=1;" vertex="1" parent="1">
          <mxGeometry x="710" y="100" width="420" height="360" as="geometry" />
        </mxCell>
        <mxCell id="rS9MF68eR8BM3vYg2wUR-8" value="API Gateway" style="sketch=0;points=[[0,0,0],[0.25,0,0],[0.5,0,0],[0.75,0,0],[1,0,0],[0,1,0],[0.25,1,0],[0.5,1,0],[0.75,1,0],[1,1,0],[0,0.25,0],[0,0.5,0],[0,0.75,0],[1,0.25,0],[1,0.5,0],[1,0.75,0]];outlineConnect=0;fontColor=#232F3E;fillColor=#8C4FFF;strokeColor=#ffffff;dashed=0;verticalLabelPosition=bottom;verticalAlign=top;align=center;html=1;fontSize=12;fontStyle=0;aspect=fixed;shape=mxgraph.aws4.resourceIcon;resIcon=mxgraph.aws4.api_gateway;" vertex="1" parent="rS9MF68eR8BM3vYg2wUR-6">
          <mxGeometry x="80" y="100" width="40" height="40" as="geometry" />
        </mxCell>
        <mxCell id="rS9MF68eR8BM3vYg2wUR-9" value="Valida tipo&amp;nbsp;&lt;div&gt;autenticacion&lt;/div&gt;" style="outlineConnect=0;dashed=0;verticalLabelPosition=bottom;verticalAlign=top;align=center;html=1;shape=mxgraph.aws3.lambda;fillColor=#F58534;gradientColor=none;" vertex="1" parent="rS9MF68eR8BM3vYg2wUR-6">
          <mxGeometry x="220" y="95" width="50" height="50" as="geometry" />
        </mxCell>
        <mxCell id="rS9MF68eR8BM3vYg2wUR-10" style="edgeStyle=orthogonalEdgeStyle;rounded=0;orthogonalLoop=1;jettySize=auto;html=1;entryX=0;entryY=0.5;entryDx=0;entryDy=0;entryPerimeter=0;" edge="1" parent="rS9MF68eR8BM3vYg2wUR-6" source="rS9MF68eR8BM3vYg2wUR-8" target="rS9MF68eR8BM3vYg2wUR-9">
          <mxGeometry relative="1" as="geometry" />
        </mxCell>
        <mxCell id="rS9MF68eR8BM3vYg2wUR-11" value="" style="rounded=0;whiteSpace=wrap;html=1;" vertex="1" parent="1">
          <mxGeometry x="110" y="414" width="530" height="166" as="geometry" />
        </mxCell>
        <mxCell id="rS9MF68eR8BM3vYg2wUR-12" value="Genesys Cloud" style="text;html=1;align=center;verticalAlign=middle;resizable=0;points=[];autosize=1;strokeColor=none;fillColor=none;" vertex="1" parent="1">
          <mxGeometry x="95" y="388" width="110" height="30" as="geometry" />
        </mxCell>
        <mxCell id="rS9MF68eR8BM3vYg2wUR-16" value="" style="edgeStyle=orthogonalEdgeStyle;rounded=0;orthogonalLoop=1;jettySize=auto;html=1;" edge="1" parent="1" source="rS9MF68eR8BM3vYg2wUR-13" target="rS9MF68eR8BM3vYg2wUR-15">
          <mxGeometry relative="1" as="geometry" />
        </mxCell>
        <mxCell id="rS9MF68eR8BM3vYg2wUR-13" value="IVR" style="rounded=0;whiteSpace=wrap;html=1;" vertex="1" parent="1">
          <mxGeometry x="180" y="490" width="100" height="50" as="geometry" />
        </mxCell>
        <mxCell id="rS9MF68eR8BM3vYg2wUR-19" style="edgeStyle=orthogonalEdgeStyle;rounded=0;orthogonalLoop=1;jettySize=auto;html=1;" edge="1" parent="1" source="rS9MF68eR8BM3vYg2wUR-15" target="rS9MF68eR8BM3vYg2wUR-9">
          <mxGeometry relative="1" as="geometry" />
        </mxCell>
        <mxCell id="rS9MF68eR8BM3vYg2wUR-20" value="ARN" style="edgeLabel;html=1;align=center;verticalAlign=middle;resizable=0;points=[];" vertex="1" connectable="0" parent="rS9MF68eR8BM3vYg2wUR-19">
          <mxGeometry x="-0.0119" y="1" relative="1" as="geometry">
            <mxPoint as="offset" />
          </mxGeometry>
        </mxCell>
        <mxCell id="rS9MF68eR8BM3vYg2wUR-15" value="DataAction Valida Autenticación" style="whiteSpace=wrap;html=1;rounded=0;" vertex="1" parent="1">
          <mxGeometry x="350" y="485" width="120" height="60" as="geometry" />
        </mxCell>
      </root>
    </mxGraphModel>
  </diagram>
</mxfile>
